<?xml version="1.0" encoding="UTF-8"?>
<svg xmlns="http://www.w3.org/2000/svg" xmlns:xlink="http://www.w3.org/1999/xlink" width="100pt" height="112pt" viewBox="0 0 100 112" version="1.1">
<g id="surface1">
<path style=" stroke:none;fill-rule:nonzero;fill:rgb(64.313725%,77.647059%,22.352941%);fill-opacity:1;" d="M 34.230469 68.03125 C 38.089844 68.03125 41.222656 71.160156 41.222656 75.019531 L 41.222656 105.007812 C 41.222656 108.871094 38.089844 112 34.230469 112 C 30.367188 112 27.238281 108.871094 27.238281 105.007812 L 27.238281 75.019531 C 27.238281 71.160156 30.367188 68.03125 34.230469 68.03125 Z M 34.230469 68.03125 "/>
<path style=" stroke:none;fill-rule:nonzero;fill:rgb(64.313725%,77.647059%,22.352941%);fill-opacity:1;" d="M 18.269531 31.976562 C 18.246094 32.238281 18.226562 32.507812 18.226562 32.777344 L 18.226562 78.214844 C 18.226562 83.101562 22.09375 87.039062 26.894531 87.039062 L 73.105469 87.039062 C 77.90625 87.039062 81.773438 83.101562 81.773438 78.214844 L 81.773438 32.777344 C 81.773438 32.507812 81.765625 32.238281 81.742188 31.976562 Z M 18.269531 31.976562 "/>
<path style=" stroke:none;fill-rule:nonzero;fill:rgb(64.313725%,77.647059%,22.352941%);fill-opacity:1;" d="M 65.769531 68.03125 C 69.632812 68.03125 72.761719 71.160156 72.761719 75.019531 L 72.761719 105.007812 C 72.761719 108.871094 69.632812 112 65.769531 112 C 61.910156 112 58.78125 108.871094 58.78125 105.007812 L 58.78125 75.019531 C 58.78125 71.160156 61.910156 68.03125 65.769531 68.03125 Z M 6.992188 36.019531 C 10.855469 36.019531 13.984375 39.148438 13.984375 43.007812 L 13.984375 72.996094 C 13.984375 76.859375 10.855469 79.988281 6.992188 79.988281 C 3.132812 79.988281 0 76.859375 0 73 L 0 43.007812 C 0 39.148438 3.132812 36.019531 6.992188 36.019531 Z M 93.007812 36.019531 C 96.867188 36.019531 100 39.148438 100 43.007812 L 100 72.996094 C 100 76.859375 96.867188 79.988281 93.007812 79.988281 C 89.148438 79.988281 86.015625 76.859375 86.015625 73 L 86.015625 43.007812 C 86.015625 39.148438 89.148438 36.019531 93.007812 36.019531 Z M 18.472656 28.992188 C 18.667969 15.035156 30.851562 3.589844 46.488281 2.082031 L 53.511719 2.082031 C 69.152344 3.59375 81.332031 15.035156 81.527344 28.992188 Z M 18.472656 28.992188 "/>
<path style="fill:none;stroke-width:3;stroke-linecap:round;stroke-linejoin:round;stroke:rgb(64.313725%,77.647059%,22.352941%);stroke-opacity:1;stroke-miterlimit:4;" d="M 74.745467 70.012951 L 89.768105 96.025741 M 193.27949 70.012951 L 178.256852 96.025741 " transform="matrix(0.490926,0,0,0.490894,-15.788226,-33.630681)"/>
<path style=" stroke:none;fill-rule:nonzero;fill:rgb(100%,100%,100%);fill-opacity:1;" d="M 40.609375 16.484375 C 40.613281 18.433594 39 20.019531 37 20.027344 C 35.003906 20.03125 33.378906 18.453125 33.375 16.503906 L 33.375 16.484375 C 33.371094 14.53125 34.984375 12.945312 36.980469 12.941406 C 38.976562 12.9375 40.601562 14.511719 40.609375 16.464844 Z M 67.605469 16.484375 C 67.613281 18.433594 66 20.019531 64 20.027344 C 62.003906 20.03125 60.378906 18.453125 60.375 16.503906 L 60.375 16.484375 C 60.367188 14.53125 61.984375 12.945312 63.980469 12.941406 C 65.976562 12.9375 67.601562 14.511719 67.605469 16.464844 Z M 67.605469 16.484375 "/>
</g>
</svg>
